<svg width="50" height="50" viewBox="0 0 50 50" fill="none" xmlns="http://www.w3.org/2000/svg">
<g opacity="0.9">
<g filter="url(#filter0_d_7691_136131)">
<path d="M38.7129 24.3829L38.6749 29.1425L38.652 31.3327L38.6571 31.3404L38.6089 37.1505C38.5937 38.9618 37.121 40.4143 35.3161 40.399L16.7378 40.2464C14.9329 40.2311 13.483 38.7532 13.4982 36.9445L13.7238 9.17831C13.7415 7.36963 15.2143 5.91454 17.0191 5.92981L29.8661 6.0341L30.0334 6.05191L29.9877 11.6204C29.9725 13.4291 31.4225 14.9071 33.2273 14.9223L38.7915 14.9681L38.7154 24.3829H38.7129Z" fill="url(#paint0_linear_7691_136131)"/>
<path d="M38.7882 14.9492V14.967L33.2241 14.9212C31.4192 14.9059 29.9693 13.428 29.9845 11.6193L30.0301 6.05078H30.0479L38.7882 14.9466V14.9492Z" fill="url(#paint1_linear_7691_136131)"/>
<g clip-path="url(#clip0_7691_136131)">
<path d="M26.375 22.75C27.8247 22.75 29 21.5747 29 20.125C29 18.6753 27.8247 17.5 26.375 17.5C24.9253 17.5 23.75 18.6753 23.75 20.125C23.75 21.5747 24.9253 22.75 26.375 22.75Z" fill="white"/>
<path d="M31.3338 27.3946C31.4604 27.7548 31.3111 28.1477 30.9917 28.3568C29.6126 29.2601 27.9556 29.75 26.25 29.75C24.5444 29.75 22.8874 29.2601 21.5083 28.3568C21.1889 28.1477 21.0396 27.7548 21.1662 27.3946C21.476 26.5132 22.0539 25.7259 22.8383 25.129C23.7971 24.3994 25.0039 24 26.25 24C27.4961 24 28.7029 24.3994 29.6617 25.129C30.4461 25.7259 31.024 26.5132 31.3338 27.3946Z" fill="white"/>
</g>
</g>
<rect x="20" y="32.75" width="12.5" height="1" rx="0.5" fill="white"/>
<rect x="20" y="30.25" width="12.5" height="1" rx="0.5" fill="white"/>
</g>
<defs>
<filter id="filter0_d_7691_136131" x="3.49805" y="1.92969" width="37.293" height="46.4688" filterUnits="userSpaceOnUse" color-interpolation-filters="sRGB">
<feFlood flood-opacity="0" result="BackgroundImageFix"/>
<feColorMatrix in="SourceAlpha" type="matrix" values="0 0 0 0 0 0 0 0 0 0 0 0 0 0 0 0 0 0 127 0" result="hardAlpha"/>
<feOffset dx="-4" dy="2"/>
<feGaussianBlur stdDeviation="3"/>
<feColorMatrix type="matrix" values="0 0 0 0 0.109804 0 0 0 0 0.180392 0 0 0 0 0.270588 0 0 0 0.3 0"/>
<feBlend mode="normal" in2="BackgroundImageFix" result="effect1_dropShadow_7691_136131"/>
<feBlend mode="normal" in="SourceGraphic" in2="effect1_dropShadow_7691_136131" result="shape"/>
</filter>
<linearGradient id="paint0_linear_7691_136131" x1="34.0425" y1="12.2188" x2="19.2767" y2="32.6035" gradientUnits="userSpaceOnUse">
<stop stop-color="#1C634C"/>
<stop offset="0.1" stop-color="#1F6C53"/>
<stop offset="0.33" stop-color="#267B5E"/>
<stop offset="0.6" stop-color="#298465"/>
<stop offset="1" stop-color="#2B8768"/>
</linearGradient>
<linearGradient id="paint1_linear_7691_136131" x1="34.6148" y1="10.3425" x2="31.0105" y2="13.3404" gradientUnits="userSpaceOnUse">
<stop stop-color="#2B8768"/>
<stop offset="1" stop-color="#219B6F"/>
</linearGradient>
<clipPath id="clip0_7691_136131">
<rect x="20" y="16" width="12.5" height="12.5" rx="5" fill="white"/>
</clipPath>
</defs>
</svg>
